<mxfile host="Electron" modified="2023-10-09T23:44:04.615Z" agent="Mozilla/5.0 (Windows NT 10.0; Win64; x64) AppleWebKit/537.36 (KHTML, like Gecko) draw.io/22.0.0 Chrome/114.0.5735.289 Electron/25.8.3 Safari/537.36" etag="3v7esCXkkqZuOQ8hFvPc" version="22.0.0" type="device">
  <diagram name="Page-1" id="xp8cIaxYdXACTSRsi3et">
    <mxGraphModel dx="1418" dy="868" grid="1" gridSize="10" guides="1" tooltips="1" connect="1" arrows="1" fold="1" page="1" pageScale="1" pageWidth="850" pageHeight="1100" math="0" shadow="0">
      <root>
        <mxCell id="0" />
        <mxCell id="1" parent="0" />
        <mxCell id="k_dkz971xRCgsq61RmBF-7" value="Raider Teritory" style="swimlane;whiteSpace=wrap;html=1;" vertex="1" parent="1">
          <mxGeometry x="30" y="250" width="770" height="370" as="geometry">
            <mxRectangle x="30" y="250" width="120" height="30" as="alternateBounds" />
          </mxGeometry>
        </mxCell>
        <mxCell id="k_dkz971xRCgsq61RmBF-12" value="" style="edgeStyle=orthogonalEdgeStyle;rounded=0;orthogonalLoop=1;jettySize=auto;html=1;endArrow=none;endFill=0;" edge="1" parent="k_dkz971xRCgsq61RmBF-7" source="jgpcen1MGg8Qw2dKirg1-2" target="k_dkz971xRCgsq61RmBF-11">
          <mxGeometry relative="1" as="geometry" />
        </mxCell>
        <mxCell id="jgpcen1MGg8Qw2dKirg1-2" value="Area under I-288" style="rounded=1;whiteSpace=wrap;html=1;" parent="k_dkz971xRCgsq61RmBF-7" vertex="1">
          <mxGeometry x="230" y="170" width="120" height="60" as="geometry" />
        </mxCell>
        <mxCell id="k_dkz971xRCgsq61RmBF-9" value="" style="edgeStyle=orthogonalEdgeStyle;rounded=0;orthogonalLoop=1;jettySize=auto;html=1;endArrow=none;endFill=0;" edge="1" parent="k_dkz971xRCgsq61RmBF-7" source="jgpcen1MGg8Qw2dKirg1-4" target="k_dkz971xRCgsq61RmBF-8">
          <mxGeometry relative="1" as="geometry" />
        </mxCell>
        <mxCell id="jgpcen1MGg8Qw2dKirg1-4" value="Courtyard" style="rounded=1;whiteSpace=wrap;html=1;" parent="k_dkz971xRCgsq61RmBF-7" vertex="1">
          <mxGeometry x="395" y="170" width="120" height="60" as="geometry" />
        </mxCell>
        <mxCell id="jgpcen1MGg8Qw2dKirg1-8" style="edgeStyle=orthogonalEdgeStyle;rounded=0;orthogonalLoop=1;jettySize=auto;html=1;entryX=0;entryY=0.5;entryDx=0;entryDy=0;startArrow=none;startFill=0;endArrow=none;endFill=0;" parent="k_dkz971xRCgsq61RmBF-7" source="jgpcen1MGg8Qw2dKirg1-2" target="jgpcen1MGg8Qw2dKirg1-4" edge="1">
          <mxGeometry relative="1" as="geometry" />
        </mxCell>
        <mxCell id="k_dkz971xRCgsq61RmBF-10" style="edgeStyle=orthogonalEdgeStyle;rounded=0;orthogonalLoop=1;jettySize=auto;html=1;exitX=1;exitY=0.5;exitDx=0;exitDy=0;entryX=0;entryY=0.5;entryDx=0;entryDy=0;endArrow=none;endFill=0;" edge="1" parent="k_dkz971xRCgsq61RmBF-7" source="jgpcen1MGg8Qw2dKirg1-5" target="k_dkz971xRCgsq61RmBF-8">
          <mxGeometry relative="1" as="geometry" />
        </mxCell>
        <mxCell id="jgpcen1MGg8Qw2dKirg1-5" value="Service Tunnel" style="rounded=1;whiteSpace=wrap;html=1;" parent="k_dkz971xRCgsq61RmBF-7" vertex="1">
          <mxGeometry x="230" y="270" width="120" height="60" as="geometry" />
        </mxCell>
        <mxCell id="jgpcen1MGg8Qw2dKirg1-10" style="edgeStyle=orthogonalEdgeStyle;rounded=0;orthogonalLoop=1;jettySize=auto;html=1;startArrow=none;startFill=0;endArrow=none;endFill=0;" parent="k_dkz971xRCgsq61RmBF-7" source="jgpcen1MGg8Qw2dKirg1-2" target="jgpcen1MGg8Qw2dKirg1-5" edge="1">
          <mxGeometry relative="1" as="geometry" />
        </mxCell>
        <mxCell id="jgpcen1MGg8Qw2dKirg1-6" value="Area Under I-88" style="rounded=1;whiteSpace=wrap;html=1;" parent="k_dkz971xRCgsq61RmBF-7" vertex="1">
          <mxGeometry x="570" y="170" width="120" height="60" as="geometry" />
        </mxCell>
        <mxCell id="jgpcen1MGg8Qw2dKirg1-9" style="edgeStyle=orthogonalEdgeStyle;rounded=0;orthogonalLoop=1;jettySize=auto;html=1;startArrow=none;startFill=0;endArrow=none;endFill=0;" parent="k_dkz971xRCgsq61RmBF-7" source="jgpcen1MGg8Qw2dKirg1-4" target="jgpcen1MGg8Qw2dKirg1-6" edge="1">
          <mxGeometry relative="1" as="geometry" />
        </mxCell>
        <mxCell id="jgpcen1MGg8Qw2dKirg1-12" style="edgeStyle=orthogonalEdgeStyle;rounded=0;orthogonalLoop=1;jettySize=auto;html=1;entryX=0;entryY=0.5;entryDx=0;entryDy=0;startArrow=none;startFill=0;endArrow=none;endFill=0;" parent="k_dkz971xRCgsq61RmBF-7" source="jgpcen1MGg8Qw2dKirg1-11" target="jgpcen1MGg8Qw2dKirg1-2" edge="1">
          <mxGeometry relative="1" as="geometry" />
        </mxCell>
        <mxCell id="jgpcen1MGg8Qw2dKirg1-11" value="Front Gate" style="rounded=0;whiteSpace=wrap;html=1;" parent="k_dkz971xRCgsq61RmBF-7" vertex="1">
          <mxGeometry x="70" y="170" width="120" height="60" as="geometry" />
        </mxCell>
        <mxCell id="k_dkz971xRCgsq61RmBF-8" value="Raider Mess Hall" style="whiteSpace=wrap;html=1;rounded=1;" vertex="1" parent="k_dkz971xRCgsq61RmBF-7">
          <mxGeometry x="395" y="270" width="120" height="60" as="geometry" />
        </mxCell>
        <mxCell id="k_dkz971xRCgsq61RmBF-11" value="Raider Barracks" style="whiteSpace=wrap;html=1;rounded=1;" vertex="1" parent="k_dkz971xRCgsq61RmBF-7">
          <mxGeometry x="230" y="90" width="120" height="60" as="geometry" />
        </mxCell>
        <mxCell id="k_dkz971xRCgsq61RmBF-6" value="" style="edgeStyle=orthogonalEdgeStyle;rounded=0;orthogonalLoop=1;jettySize=auto;html=1;endArrow=none;endFill=0;" edge="1" parent="1" source="k_dkz971xRCgsq61RmBF-3" target="k_dkz971xRCgsq61RmBF-5">
          <mxGeometry relative="1" as="geometry" />
        </mxCell>
        <mxCell id="k_dkz971xRCgsq61RmBF-4" value="" style="edgeStyle=orthogonalEdgeStyle;rounded=0;orthogonalLoop=1;jettySize=auto;html=1;endArrow=none;endFill=0;" edge="1" parent="1" source="k_dkz971xRCgsq61RmBF-1" target="k_dkz971xRCgsq61RmBF-3">
          <mxGeometry relative="1" as="geometry" />
        </mxCell>
        <mxCell id="k_dkz971xRCgsq61RmBF-1" value="Service Tunnel" style="rounded=1;whiteSpace=wrap;html=1;" vertex="1" parent="1">
          <mxGeometry x="260" y="650" width="120" height="60" as="geometry" />
        </mxCell>
        <mxCell id="k_dkz971xRCgsq61RmBF-2" value="" style="edgeStyle=orthogonalEdgeStyle;rounded=0;orthogonalLoop=1;jettySize=auto;html=1;endArrow=none;endFill=0;exitX=0.5;exitY=1;exitDx=0;exitDy=0;" edge="1" parent="1" source="jgpcen1MGg8Qw2dKirg1-5" target="k_dkz971xRCgsq61RmBF-1">
          <mxGeometry relative="1" as="geometry">
            <mxPoint x="320" y="590" as="sourcePoint" />
          </mxGeometry>
        </mxCell>
        <mxCell id="k_dkz971xRCgsq61RmBF-3" value="Metro Tunnel" style="whiteSpace=wrap;html=1;rounded=1;" vertex="1" parent="1">
          <mxGeometry x="260" y="760" width="120" height="60" as="geometry" />
        </mxCell>
        <mxCell id="k_dkz971xRCgsq61RmBF-16" value="" style="edgeStyle=orthogonalEdgeStyle;rounded=0;orthogonalLoop=1;jettySize=auto;html=1;startArrow=none;startFill=0;endArrow=none;endFill=0;" edge="1" parent="1" source="k_dkz971xRCgsq61RmBF-5" target="k_dkz971xRCgsq61RmBF-15">
          <mxGeometry relative="1" as="geometry" />
        </mxCell>
        <mxCell id="k_dkz971xRCgsq61RmBF-5" value="Metro Tunnel" style="whiteSpace=wrap;html=1;rounded=1;" vertex="1" parent="1">
          <mxGeometry x="420" y="760" width="120" height="60" as="geometry" />
        </mxCell>
        <mxCell id="k_dkz971xRCgsq61RmBF-17" style="edgeStyle=orthogonalEdgeStyle;rounded=0;orthogonalLoop=1;jettySize=auto;html=1;exitX=0.5;exitY=1;exitDx=0;exitDy=0;entryX=0.5;entryY=0;entryDx=0;entryDy=0;endArrow=none;endFill=0;" edge="1" parent="1" source="k_dkz971xRCgsq61RmBF-13" target="k_dkz971xRCgsq61RmBF-15">
          <mxGeometry relative="1" as="geometry">
            <mxPoint x="660" y="740" as="sourcePoint" />
          </mxGeometry>
        </mxCell>
        <mxCell id="k_dkz971xRCgsq61RmBF-13" value="Abandoned Tunnel" style="whiteSpace=wrap;html=1;rounded=1;" vertex="1" parent="1">
          <mxGeometry x="600" y="650" width="120" height="60" as="geometry" />
        </mxCell>
        <mxCell id="k_dkz971xRCgsq61RmBF-14" value="" style="edgeStyle=orthogonalEdgeStyle;rounded=0;orthogonalLoop=1;jettySize=auto;html=1;endArrow=none;endFill=0;" edge="1" parent="1" source="jgpcen1MGg8Qw2dKirg1-6" target="k_dkz971xRCgsq61RmBF-13">
          <mxGeometry relative="1" as="geometry" />
        </mxCell>
        <mxCell id="k_dkz971xRCgsq61RmBF-15" value="Destroyed Metro Station" style="whiteSpace=wrap;html=1;rounded=1;" vertex="1" parent="1">
          <mxGeometry x="600" y="760" width="120" height="60" as="geometry" />
        </mxCell>
        <mxCell id="k_dkz971xRCgsq61RmBF-19" style="edgeStyle=orthogonalEdgeStyle;rounded=0;orthogonalLoop=1;jettySize=auto;html=1;exitX=0.5;exitY=0;exitDx=0;exitDy=0;entryX=0.5;entryY=1;entryDx=0;entryDy=0;endArrow=none;endFill=0;" edge="1" parent="1" source="k_dkz971xRCgsq61RmBF-18" target="k_dkz971xRCgsq61RmBF-15">
          <mxGeometry relative="1" as="geometry" />
        </mxCell>
        <mxCell id="k_dkz971xRCgsq61RmBF-18" value="Boss Battle" style="ellipse;whiteSpace=wrap;html=1;aspect=fixed;" vertex="1" parent="1">
          <mxGeometry x="620" y="860" width="80" height="80" as="geometry" />
        </mxCell>
      </root>
    </mxGraphModel>
  </diagram>
</mxfile>
